<?xml version="1.0" encoding="utf-8"?>
<!-- Generator: Adobe Illustrator 23.0.0, SVG Export Plug-In . SVG Version: 6.00 Build 0)  -->
<svg version="1.1" id="Слой_1" xmlns="http://www.w3.org/2000/svg" xmlns:xlink="http://www.w3.org/1999/xlink" x="0px" y="0px"
	 viewBox="0 0 3701.1 2186" style="enable-background:new 0 0 3701.1 2186;" xml:space="preserve">
<style type="text/css">
	.st0{fill:#F3BA2F;}
	.st1{fill:#E17726;}
	.st2{fill:#E27625;}
	.st3{fill:#D5BFB2;}
	.st4{fill:#233447;}
	.st5{fill:#CC6228;}
	.st6{fill:#E27525;}
	.st7{fill:#F5841F;}
	.st8{fill:#C0AC9D;}
	.st9{fill:#161616;}
	.st10{fill:#763E1A;}
</style>
<g>
	<path class="st0" d="M2185.8,920.4l423.9-423.9l424.1,424.1L3280.5,674L2609.7,3.2l-670.5,670.6L2185.8,920.4 M1518.3,1094.5
		L1765,847.9l246.6,246.6L1765,1341.2L1518.3,1094.5z M2185.8,1268.7l423.9,423.9l424.1-424.1l246.8,246.5l-0.1,0.1L2609.7,2186
		l-670.6-670.6l-0.3-0.3L2185.8,1268.7 M3207.8,1094.7L3454.5,848l246.6,246.6l-246.7,246.7L3207.8,1094.7z"/>
	<path class="st0" d="M2859.9,1094.4h0.1l-250.3-250.3l-185,185h0l-21.2,21.3l-43.8,43.8l-0.3,0.3l0.3,0.4l250.1,250.1l250.3-250.3
		l0.1-0.1L2859.9,1094.4"/>
</g>
<g>
	<polygon class="st1" points="2251.2,0 1275.7,721.8 1457.1,296.4 	"/>
	<polygon class="st2" points="85.5,0.8 877.5,296.5 1049.7,727.4 	"/>
	<polygon class="st2" points="1858.7,1535 2289.8,1543.2 2139.1,2055.1 1613,1910.3 	"/>
	<polygon class="st2" points="475.8,1535 720.5,1910.3 195.3,2055.1 45.5,1543.2 	"/>
	<polygon class="st2" points="1026.3,617.6 1043.9,1186.7 516.7,1162.7 666.7,936.5 668.6,934.3 	"/>
	<polygon class="st2" points="1302.7,611.3 1665.9,934.3 1667.8,936.5 1817.7,1162.7 1290.6,1186.7 	"/>
	<polygon class="st2" points="736,1536.7 1023.8,1761 689.4,1922.5 	"/>
	<polygon class="st2" points="1598.6,1536.7 1644.1,1922.5 1310.6,1761 	"/>
	<polygon class="st3" points="1318,1739.8 1656.4,1903.7 1341.6,2053.3 1344.9,1954.4 	"/>
	<polygon class="st3" points="1016.4,1739.9 990.5,1952.8 992.7,2053.2 677.1,1903.7 	"/>
	<polygon class="st4" points="918.6,1261 1007.1,1446.8 706,1358.6 	"/>
	<polygon class="st4" points="1415.8,1261 1629.5,1358.6 1327.4,1446.8 	"/>
	<polygon class="st5" points="759,1534.8 710.3,1934.8 449.5,1543.5 	"/>
	<polygon class="st5" points="1575.5,1534.8 1885,1543.5 1623.2,1934.8 	"/>
	<polygon class="st5" points="1825.4,1140.1 1600.1,1369.7 1426.5,1290.3 1343.3,1465.1 1288.8,1164.5 	"/>
	<polygon class="st5" points="509,1140.1 1045.7,1164.5 991.2,1465.1 908,1290.3 735.2,1369.7 	"/>
	<polygon class="st6" points="493.8,1093 748.7,1351.6 757.5,1606.9 	"/>
	<polygon class="st6" points="1840.9,1092.5 1576.8,1607.4 1586.7,1351.6 	"/>
	<polygon class="st6" points="1033.2,1108.8 1043.5,1173.3 1068.8,1334.1 1052.5,1828.1 975.5,1431.3 975.4,1427.2 	"/>
	<polygon class="st6" points="1301.1,1107.9 1359,1427.2 1359,1431.3 1281.8,1829.1 1278.7,1729.6 1266.7,1331.2 	"/>
	<polygon class="st7" points="1609.4,1341.3 1600.7,1563.1 1331.9,1772.6 1277.6,1734.2 1338.5,1420.4 	"/>
	<polygon class="st7" points="726,1341.3 996,1420.4 1056.9,1734.2 1002.6,1772.6 733.7,1563.1 	"/>
	<polygon class="st8" points="625.7,1854.7 969.6,2017.7 968.2,1948.1 997,1922.8 1337.4,1922.8 1367.2,1948 1365,2017.6 
		1706.8,1855.1 1540.5,1992.6 1339.4,2130.7 994.2,2130.7 793.2,1992 	"/>
	<polygon class="st9" points="1293.4,1718.2 1342,1752.5 1370.5,1979.9 1329.3,1945.1 1005.3,1945.1 964.9,1980.6 992.4,1752.5 
		1041.1,1718.2 	"/>
	<polygon class="st10" points="2186.8,20 2303.9,371.3 2230.8,726.4 2282.9,766.6 2212.4,820.4 2265.4,861.3 2195.2,925.1 
		2238.3,956.3 2124,1089.7 1655.4,953.3 1651.4,951.1 1313.7,666.3 	"/>
	<polygon class="st10" points="147.6,20 1020.8,666.3 683.1,951.1 679.1,953.3 210.4,1089.7 96.2,956.3 139.2,925.2 69.1,861.3 
		122,820.4 50.5,766.5 104.5,726.3 30.6,371.3 	"/>
	<polygon class="st7" points="1632.5,923.5 2129,1068 2290.3,1565.2 1864.8,1565.2 1571.5,1568.9 1784.8,1153.2 	"/>
	<polygon class="st7" points="702,923.5 549.7,1153.2 763,1568.9 469.9,1565.2 45,1565.2 205.4,1068 	"/>
	<polygon class="st7" points="1481.5,294 1342.6,669.1 1313.1,1175.9 1301.8,1334.7 1300.9,1740.4 1033.5,1740.4 1032.7,1335.4 
		1021.3,1175.7 991.9,669.1 853,294 	"/>
</g>
</svg>
