<?xml version="1.0" encoding="utf-8"?>
<!-- Generator: Adobe Illustrator 23.0.0, SVG Export Plug-In . SVG Version: 6.00 Build 0)  -->
<svg version="1.1" id="Layer_1" xmlns="http://www.w3.org/2000/svg" xmlns:xlink="http://www.w3.org/1999/xlink" x="0px" y="0px"
	 viewBox="0 0 76.5 77.7" style="enable-background:new 0 0 76.5 77.7;" xml:space="preserve">
<style type="text/css">
	.st0{fill:#17181B;}
</style>
<path class="st0" d="M66.5,46.4c-1.2,0.8-2.8,1-4.2,0.3C60.8,45.8,60,43.8,60,41v-8.5c0-4.1-1.6-7-4.3-7.8c-4.6-1.3-8,4.3-9.3,6.4
	l-8.1,13.1v-16c-0.1-3.7-1.3-5.9-3.6-6.6c-1.5-0.4-3.7-0.3-5.9,3.1L10.6,53.8C8.2,49.2,7,44,7,38.8C7,21.3,21,7.1,38.2,7.1
	s31.3,14.3,31.3,31.8v0.1c0,0,0,0.1,0,0.1C69.7,42.4,68.6,45.1,66.5,46.4L66.5,46.4z M76.5,38.8v-0.2C76.4,17.3,59.2,0,38.2,0
	S0,17.4,0,38.8s17.1,38.8,38.2,38.8c9.7,0,19-3.7,26-10.4c1.4-1.3,1.5-3.6,0.2-5c-1.3-1.4-3.4-1.5-4.8-0.2l0,0
	c-12.4,11.8-32,11.2-43.7-1.2c-0.3-0.3-0.6-0.6-0.8-0.9l16.3-26.2v12.1c0,5.8,2.3,7.7,4.1,8.2c1.9,0.6,4.8,0.2,7.8-4.7l9-14.6
	c0.3-0.5,0.5-0.9,0.8-1.2V41c0,5.4,2.2,9.8,6,11.9c3.5,1.9,7.8,1.7,11.2-0.5C74.4,49.7,76.7,44.8,76.5,38.8L76.5,38.8z"/>
</svg>
