<?xml version="1.0" encoding="utf-8"?>
<!-- Generator: Adobe Illustrator 23.0.0, SVG Export Plug-In . SVG Version: 6.00 Build 0)  -->
<svg version="1.1" id="Layer_2" xmlns="http://www.w3.org/2000/svg" xmlns:xlink="http://www.w3.org/1999/xlink" x="0px" y="0px"
	 viewBox="0 0 41.2 41.2" style="enable-background:new 0 0 41.2 41.2;" xml:space="preserve">
<style type="text/css">
	.st0{fill:#17181B;}
</style>
<g id="Layer_1-2">
	<g>
		<path class="st0" d="M31.7,23.2l4.5,4.5c-2.2,4.7-6.4,8.3-11.6,9.5l0.1,0.1l-4,4l-4-4l0.1-0.1C10.5,35.7,5.5,30.8,4,24.6l0,0l-4-4
			l4-4l0,0C5.5,10.4,10.4,5.5,16.7,4l4-4l4,4c5.2,1.2,9.4,4.8,11.6,9.5L31.7,18c-1.2-5-5.7-8.8-11.1-8.8c-6.3,0-11.4,5.1-11.4,11.4
			S14.3,32,20.6,32C26,32,30.5,28.2,31.7,23.2L31.7,23.2z"/>
		
			<rect x="34.4" y="17.8" transform="matrix(0.7071 -0.7071 0.7071 0.7071 -3.6975 32.3528)" class="st0" width="5.6" height="5.6"/>
	</g>
</g>
</svg>
