<?xml version="1.0" encoding="utf-8"?>
<!-- Generator: Adobe Illustrator 23.0.0, SVG Export Plug-In . SVG Version: 6.00 Build 0)  -->
<svg version="1.1" id="katman_1" xmlns="http://www.w3.org/2000/svg" xmlns:xlink="http://www.w3.org/1999/xlink" x="0px" y="0px"
	 viewBox="0 0 70.2 71.1" style="enable-background:new 0 0 70.2 71.1;" xml:space="preserve">
<style type="text/css">
	.st0{fill:#17181B;}
	.st1{fill:#FFFFFF;}
</style>
<g id="Coin_Gecko_Vector_Text">
</g>
<g>
	<path class="st0" d="M54.4,27.2c0,6.8-2.5,13-6.6,17.7L42,39.8L26.3,54.4C11.7,53.9,0,41.9,0,27.2C0,12.2,12.2,0,27.2,0
		S54.4,12.2,54.4,27.2z"/>
	<g>
		<path class="st1" d="M39.6,19.9l-7.1,1.3c-0.2-1.4-0.8-2.5-1.6-3.2c-0.8-0.7-1.9-1.1-3.3-1.1c-1.8,0-3.2,0.6-4.3,1.8
			s-1.6,3.3-1.6,6.2c0,3.2,0.5,5.5,1.6,6.8s2.5,2,4.3,2c1.4,0,2.5-0.4,3.3-1.2c0.9-0.8,1.5-2.1,1.8-4l7,1.2
			c-0.7,3.2-2.1,5.7-4.2,7.3c-2.1,1.6-4.9,2.5-8.3,2.5c-4,0-7.1-1.2-9.5-3.7s-3.5-6-3.5-10.4c0-4.5,1.2-8,3.5-10.4
			c2.4-2.5,5.6-3.7,9.6-3.7c3.3,0,5.9,0.7,7.9,2.1C37.4,14.9,38.8,17,39.6,19.9z"/>
	</g>
	<path class="st0" d="M53.5,40.2v5h7.9l-11.6,11L43.2,50c-1-0.9-2.5-0.9-3.4,0l-18,17.5l3.5,3.6l16.3-15.9l6.6,6.1
		c1,0.9,2.5,0.9,3.4,0l13.6-12.8V57h5V40.2H53.5z"/>
</g>
</svg>
