<?xml version="1.0" encoding="utf-8"?>
<!-- Generator: Adobe Illustrator 23.0.0, SVG Export Plug-In . SVG Version: 6.00 Build 0)  -->
<svg version="1.1" id="Слой_1" xmlns="http://www.w3.org/2000/svg" xmlns:xlink="http://www.w3.org/1999/xlink" x="0px" y="0px"
	 viewBox="0 0 647.4 647.4" style="enable-background:new 0 0 647.4 647.4;" xml:space="preserve">
<style type="text/css">
	.st0{fill:#17181B;}
</style>
<g id="Layer_2">
	<g id="Layer_1-2">
		<path class="st0" d="M323.7,0C144.9,0,0,144.9,0,323.7s144.9,323.7,323.7,323.7s323.7-144.9,323.7-323.7S502.5,0,323.7,0z
			 M528.7,374.9L528.7,374.9l-205,205l-51.3-51.3l-51.3-51.3L169.8,426l153.8-153.8l51.3,51.3L272.4,426.2l51.3,51.3l153.8-153.8
			L323.7,169.9l-205,205l-51.2-51.3l205-205l51.3-51.3l205,205l0,0l51.3,51.3L528.7,374.9z"/>
	</g>
</g>
</svg>
